<svg width="83" height="97" viewBox="0 0 83 97" fill="none" xmlns="http://www.w3.org/2000/svg">
<path d="M29.6857 6.6209e-06C29.3587 0.00138942 29.0409 0.106804 28.7788 0.300754C28.5167 0.494704 28.3243 0.766958 28.2297 1.07749L26.3263 7.30559L14.0283 5.6716C13.9769 5.66504 13.9251 5.66109 13.8732 5.65976C13.4948 5.64769 13.1254 5.77546 12.8365 6.01829C12.5477 6.26113 12.36 6.60173 12.3099 6.97405L11.6237 12.0595H1.52754C1.32553 12.0596 1.12554 12.0994 0.939129 12.1766C0.75272 12.2538 0.583599 12.367 0.441556 12.5095C0.15873 12.7932 6.89523e-05 13.1761 1.9141e-08 13.5751V95.4817C-6.2227e-05 95.8721 0.151695 96.2475 0.423655 96.5296C0.566295 96.6775 0.737642 96.7951 0.927363 96.8755C1.11708 96.9559 1.32125 96.9973 1.52754 96.9973H55.636C55.7668 96.998 55.8972 96.9821 56.0239 96.9499L56.2984 96.9854C56.5457 97.0197 56.7977 96.9933 57.0323 96.9085L57.1099 96.9322C57.4976 97.0482 57.9159 97.0067 58.2728 96.8169C58.6297 96.6271 58.8961 96.3044 59.0133 95.9198L82.9349 17.5358C83.0519 17.1511 83.0101 16.7361 82.8187 16.3819C82.6274 16.0278 82.3022 15.7635 81.9146 15.6472L30.1332 0.0651293C29.9881 0.0215101 29.8373 -0.000437967 29.6857 6.6209e-06ZM30.712 3.40415L57.3664 11.4261L29.3933 7.71408L30.712 3.40415ZM15.1382 8.88037L27.1437 10.4729C27.1655 10.4773 27.1874 10.4813 27.2094 10.4848L39.0717 12.0595H14.7086L15.1382 8.88037ZM57.1636 14.4632L65.7321 15.5999L57.1636 79.1655V14.4632ZM68.9125 14.9013L79.5695 18.11L59.7115 83.1854L68.9125 14.9013Z" fill="black"/>
<path d="M26.0312 66.1875C26.0729 63.7083 26.3542 61.75 26.875 60.3125C27.3958 58.875 28.4583 57.2812 30.0625 55.5312L34.1562 51.3125C35.9062 49.3333 36.7812 47.2083 36.7812 44.9375C36.7812 42.75 36.2083 41.0417 35.0625 39.8125C33.9167 38.5625 32.25 37.9375 30.0625 37.9375C27.9375 37.9375 26.2292 38.5 24.9375 39.625C23.6458 40.75 23 42.2604 23 44.1562H17.2188C17.2604 40.7812 18.4583 38.0625 20.8125 36C23.1875 33.9167 26.2708 32.875 30.0625 32.875C34 32.875 37.0625 33.9375 39.25 36.0625C41.4583 38.1667 42.5625 41.0625 42.5625 44.75C42.5625 48.3958 40.875 51.9896 37.5 55.5312L34.0938 58.9062C32.5729 60.5938 31.8125 63.0208 31.8125 66.1875H26.0312ZM25.7812 76.0938C25.7812 75.1562 26.0625 74.375 26.625 73.75C27.2083 73.1042 28.0625 72.7812 29.1875 72.7812C30.3125 72.7812 31.1667 73.1042 31.75 73.75C32.3333 74.375 32.625 75.1562 32.625 76.0938C32.625 77.0312 32.3333 77.8125 31.75 78.4375C31.1667 79.0417 30.3125 79.3438 29.1875 79.3438C28.0625 79.3438 27.2083 79.0417 26.625 78.4375C26.0625 77.8125 25.7812 77.0312 25.7812 76.0938Z" fill="white"/>
</svg>
