<svg width="116" height="130" viewBox="0 0 116 130" fill="none" xmlns="http://www.w3.org/2000/svg">
<path d="M115.599 38.1408C115.161 34.8136 112.111 32.47 108.782 32.9065L74.973 37.3461C74.6907 37.3835 74.4177 37.4452 74.1513 37.5191C68.0177 38.1277 62.6424 42.4869 61.0643 48.8102L56.1545 68.486C54.1446 76.5266 59.0394 84.6776 67.0838 86.6782C67.2371 86.7165 67.3905 86.7361 67.5428 86.7688L66.6846 90.3802L54.2642 95.7397C50.4706 97.3747 48.7224 101.777 50.3603 105.571C51.5793 108.397 54.3343 110.088 57.2296 110.088C58.2186 110.088 59.2245 109.89 60.1893 109.474L76.0546 102.629C78.2347 101.686 79.8174 99.8016 80.3671 97.4916L92.2911 47.3303L110.365 44.9568C113.692 44.5202 116.036 41.4698 115.599 38.1408ZM74.0625 30.7854C81.9507 35.3521 92.0434 32.6691 96.6157 24.779C101.179 16.8916 98.4948 6.79806 90.6065 2.22571C82.7201 -2.34571 72.62 0.35227 68.0495 8.23492C63.48 16.1269 66.1751 26.2242 74.0625 30.7854ZM2.7026 126.549C12.8906 112.244 25.7279 98.9555 41.3399 92.4088C46.3133 90.3344 50.2687 88.129 49.8985 86.063C49.5694 84.0671 44.1127 83.638 38.6158 86.594C21.9904 95.7312 10.6713 110.608 1.80515 125.99C-0.933028 131.14 -0.494583 131.333 2.7026 126.549ZM80.4288 105.44C79.9193 105.528 79.5762 106.011 79.6641 106.52C79.7417 106.977 80.1381 107.299 80.5849 107.299C80.6382 107.299 80.6906 107.294 80.7438 107.285C83.1782 106.878 84.7469 105.736 85.5985 104.415C86.453 103.099 86.6241 101.698 86.6259 100.728C86.6259 99.9614 86.5193 99.4463 86.5091 99.3996C86.4016 98.8966 85.9042 98.5722 85.3994 98.6807C84.8955 98.7873 84.5721 99.2837 84.6805 99.7885H84.6786C84.6786 99.7885 84.6945 99.8521 84.7132 100.019C84.7338 100.186 84.7562 100.432 84.7562 100.728C84.7562 101.478 84.6113 102.514 84.0317 103.393C83.4493 104.268 82.464 105.083 80.4288 105.44Z" fill="black"/>
<path d="M87.9385 105.96C86.9195 107.528 85.1507 108.968 81.6095 109.446C81.0963 109.512 80.7354 109.981 80.8018 110.494C80.8644 110.966 81.2674 111.309 81.7311 111.309C81.7713 111.309 81.8115 111.306 81.8526 111.3C85.8229 110.794 88.2311 108.997 89.5118 106.965C90.8 104.941 91.0169 102.79 91.0188 101.481C91.0188 100.721 90.9449 100.234 90.9393 100.198C90.858 99.6866 90.3794 99.3398 89.8689 99.4211C89.3604 99.5006 89.0117 99.9783 89.0921 100.489C89.0921 100.492 89.151 100.847 89.151 101.482C89.1538 102.581 88.9481 104.387 87.9385 105.96Z" fill="black"/>
<path d="M63.0677 35.2343C63.5744 35.139 63.91 34.651 63.8165 34.1443C63.7212 33.6376 63.2332 33.301 62.7265 33.3955C57.869 34.2443 56.8659 37.9903 56.9463 39.916C56.9463 40.7565 57.0781 41.3277 57.0894 41.3763C57.1894 41.8082 57.5755 42.0989 57.999 42.0989C58.0691 42.0989 58.1401 42.0905 58.2121 42.0737C58.716 41.9568 59.0282 41.4529 58.9104 40.9491C58.9104 40.9491 58.8936 40.8752 58.8665 40.691C58.8431 40.5078 58.816 40.2358 58.816 39.916C58.8974 38.3558 59.1918 36.014 63.0677 35.2343Z" fill="black"/>
<path d="M61.8225 31.2509C62.3329 31.1752 62.6863 30.7012 62.6115 30.1917C62.5376 29.6813 62.0618 29.3261 61.5523 29.4008C57.6792 29.9561 55.3187 31.7193 54.0502 33.7133C52.775 35.7036 52.546 37.8229 52.5422 39.1775C52.5441 40.0469 52.6395 40.6125 52.6479 40.6527C52.7283 41.1061 53.1218 41.4249 53.5678 41.4249C53.6229 41.4249 53.6771 41.4202 53.7332 41.4099C54.2409 41.3192 54.5802 40.8331 54.4895 40.3264V40.3246C54.4895 40.3246 54.4129 39.9039 54.4129 39.1766C54.411 38.036 54.6251 36.2683 55.6226 34.7248C56.6257 33.187 58.3692 31.7716 61.8225 31.2509Z" fill="black"/>
</svg>
