<svg width="100" height="89" viewBox="0 0 100 89" fill="none" xmlns="http://www.w3.org/2000/svg">
<path d="M1.94852 0C1.43176 3.33633e-05 0.936176 0.132904 0.570768 0.369421C0.20536 0.605938 5.15448e-05 0.926733 0 1.26122V39.0978C5.15448e-05 39.4323 0.20536 39.7531 0.570768 39.9896C0.936176 40.2261 1.43176 40.359 1.94852 40.359H60.2673H60.4044C60.9212 40.359 61.4168 40.2261 61.7822 39.9896C62.1476 39.7531 62.3529 39.4323 62.3529 39.0978V1.26122L62.3218 1.28139C62.3258 1.11576 62.2793 0.951278 62.1851 0.797268C62.0909 0.643258 61.9507 0.502761 61.7726 0.383816C61.5945 0.264871 61.3819 0.169769 61.147 0.103998C60.9122 0.0382272 60.6596 0.00304528 60.4037 0.000461872H1.94796L1.94852 0ZM3.89705 2.52244H58.4557V37.8366H3.89705V2.52244Z" fill="black"/>
<rect x="2.711" y="1.00898" width="56.0273" height="38.341" fill="black"/>
<path d="M25.5754 20.4738V22.2755V69.1208V70.9225H28.5124V69.1208V22.2755V20.4738H25.5754ZM34.3862 20.4738V22.2755V69.1208V70.9225H37.3231V69.1208V22.2755V20.4738H34.3862Z" fill="black"/>
<line x1="26.4791" y1="69.9225" x2="36.4194" y2="70.9315" stroke="black" stroke-width="2"/>
<path d="M39.5956 17.0685C39.0788 17.0685 38.5832 17.2014 38.2178 17.4379C37.8524 17.6744 37.6471 17.9952 37.6471 18.3297V56.1663C37.6471 56.5008 37.8524 56.8216 38.2178 57.0581C38.5832 57.2946 39.0788 57.4275 39.5956 57.4275H97.9143H98.0515C98.5682 57.4275 99.0639 57.2946 99.4293 57.0581C99.7947 56.8216 100 56.5008 100 56.1663V18.3297L99.9688 18.3499C99.9728 18.1843 99.9264 18.0198 99.8322 17.8658C99.7379 17.7118 99.5978 17.5713 99.4197 17.4523C99.2416 17.3334 99.029 17.2383 98.7941 17.1725C98.5592 17.1067 98.3067 17.0715 98.0508 17.069H39.595L39.5956 17.0685ZM41.5441 19.5909H96.1028V54.9051H41.5441V19.5909Z" fill="#2C2C2C"/>
<rect x="40.3581" y="18.0775" width="56.0273" height="38.341" fill="#2C2C2C"/>
<path d="M63.2225 37.5423V39.344V86.1893V87.991H66.1594V86.1893V39.344V37.5423H63.2225ZM72.0332 37.5423V39.344V86.1893V87.991H74.9702V86.1893V39.344V37.5423H72.0332Z" fill="#2C2C2C"/>
<line x1="64.1262" y1="86.991" x2="74.0665" y2="88" stroke="#2C2C2C" stroke-width="2"/>
</svg>
