<svg width="123" height="84" viewBox="0 0 123 84" fill="none" xmlns="http://www.w3.org/2000/svg">
<path d="M60.3674 71.0607L1.58744 38.3529C-0.529145 37.1738 -0.529145 33.5244 1.58744 32.3453L58.0996 0.900683C60.2598 -0.300228 62.7428 -0.300228 64.9029 0.900683L121.413 32.3484C123.529 33.5275 123.529 37.1769 121.413 38.3561L62.6326 71.0607C61.9151 71.462 61.0849 71.462 60.3674 71.0607Z" fill="#1E1E1E"/>
<path d="M94.8118 35.7443C94.8118 28.8717 79.8984 23.2996 61.5 23.2996C43.1016 23.2996 28.1882 28.8717 28.1882 35.7443C28.1882 39.4653 28.1882 56.9127 28.1882 60.6337H94.8118C94.8118 56.9127 94.8118 39.4653 94.8118 35.7443Z" fill="#373737"/>
<path d="M61.5 73.0783C79.8976 73.0783 94.8118 67.5067 94.8118 60.6337C94.8118 53.7607 79.8976 48.189 61.5 48.189C43.1024 48.189 28.1882 53.7607 28.1882 60.6337C28.1882 67.5067 43.1024 73.0783 61.5 73.0783Z" fill="#373737"/>
<path d="M61.5 68.4116C77.0672 68.4116 89.6869 64.2328 89.6869 59.0781C89.6869 53.9233 77.0672 49.7446 61.5 49.7446C45.9328 49.7446 33.3131 53.9233 33.3131 59.0781C33.3131 64.2328 45.9328 68.4116 61.5 68.4116Z" fill="black"/>
<path d="M112.749 84C111.332 84 110.186 82.6062 110.186 80.8888V27.999C110.186 26.2816 111.332 24.8878 112.749 24.8878C114.166 24.8878 115.311 26.2816 115.311 27.999V80.8888C115.311 82.6062 114.166 84 112.749 84Z" fill="#FF9800"/>
<path d="M112.749 77.7777C115.579 77.7777 117.874 74.9918 117.874 71.5553C117.874 68.1188 115.579 65.333 112.749 65.333C109.919 65.333 107.624 68.1188 107.624 71.5553C107.624 74.9918 109.919 77.7777 112.749 77.7777Z" fill="#FFC107"/>
</svg>
